G75*
%MOIN*%
%OFA0B0*%
%FSLAX25Y25*%
%IPPOS*%
%LPD*%
%AMOC8*
5,1,8,0,0,1.08239X$1,22.5*
%
%ADD10C,0.00000*%
%ADD11C,0.07400*%
%ADD12OC8,0.07400*%
%ADD13C,0.06600*%
%ADD14C,0.17000*%
%ADD15C,0.01000*%
%ADD16C,0.04000*%
D10*
X0042034Y0150000D02*
X0042036Y0150158D01*
X0042042Y0150316D01*
X0042052Y0150474D01*
X0042066Y0150632D01*
X0042084Y0150789D01*
X0042105Y0150946D01*
X0042131Y0151102D01*
X0042161Y0151258D01*
X0042194Y0151413D01*
X0042232Y0151566D01*
X0042273Y0151719D01*
X0042318Y0151871D01*
X0042367Y0152022D01*
X0042420Y0152171D01*
X0042476Y0152319D01*
X0042536Y0152465D01*
X0042600Y0152610D01*
X0042668Y0152753D01*
X0042739Y0152895D01*
X0042813Y0153035D01*
X0042891Y0153172D01*
X0042973Y0153308D01*
X0043057Y0153442D01*
X0043146Y0153573D01*
X0043237Y0153702D01*
X0043332Y0153829D01*
X0043429Y0153954D01*
X0043530Y0154076D01*
X0043634Y0154195D01*
X0043741Y0154312D01*
X0043851Y0154426D01*
X0043964Y0154537D01*
X0044079Y0154646D01*
X0044197Y0154751D01*
X0044318Y0154853D01*
X0044441Y0154953D01*
X0044567Y0155049D01*
X0044695Y0155142D01*
X0044825Y0155232D01*
X0044958Y0155318D01*
X0045093Y0155402D01*
X0045229Y0155481D01*
X0045368Y0155558D01*
X0045509Y0155630D01*
X0045651Y0155700D01*
X0045795Y0155765D01*
X0045941Y0155827D01*
X0046088Y0155885D01*
X0046237Y0155940D01*
X0046387Y0155991D01*
X0046538Y0156038D01*
X0046690Y0156081D01*
X0046843Y0156120D01*
X0046998Y0156156D01*
X0047153Y0156187D01*
X0047309Y0156215D01*
X0047465Y0156239D01*
X0047622Y0156259D01*
X0047780Y0156275D01*
X0047937Y0156287D01*
X0048096Y0156295D01*
X0048254Y0156299D01*
X0048412Y0156299D01*
X0048570Y0156295D01*
X0048729Y0156287D01*
X0048886Y0156275D01*
X0049044Y0156259D01*
X0049201Y0156239D01*
X0049357Y0156215D01*
X0049513Y0156187D01*
X0049668Y0156156D01*
X0049823Y0156120D01*
X0049976Y0156081D01*
X0050128Y0156038D01*
X0050279Y0155991D01*
X0050429Y0155940D01*
X0050578Y0155885D01*
X0050725Y0155827D01*
X0050871Y0155765D01*
X0051015Y0155700D01*
X0051157Y0155630D01*
X0051298Y0155558D01*
X0051437Y0155481D01*
X0051573Y0155402D01*
X0051708Y0155318D01*
X0051841Y0155232D01*
X0051971Y0155142D01*
X0052099Y0155049D01*
X0052225Y0154953D01*
X0052348Y0154853D01*
X0052469Y0154751D01*
X0052587Y0154646D01*
X0052702Y0154537D01*
X0052815Y0154426D01*
X0052925Y0154312D01*
X0053032Y0154195D01*
X0053136Y0154076D01*
X0053237Y0153954D01*
X0053334Y0153829D01*
X0053429Y0153702D01*
X0053520Y0153573D01*
X0053609Y0153442D01*
X0053693Y0153308D01*
X0053775Y0153172D01*
X0053853Y0153035D01*
X0053927Y0152895D01*
X0053998Y0152753D01*
X0054066Y0152610D01*
X0054130Y0152465D01*
X0054190Y0152319D01*
X0054246Y0152171D01*
X0054299Y0152022D01*
X0054348Y0151871D01*
X0054393Y0151719D01*
X0054434Y0151566D01*
X0054472Y0151413D01*
X0054505Y0151258D01*
X0054535Y0151102D01*
X0054561Y0150946D01*
X0054582Y0150789D01*
X0054600Y0150632D01*
X0054614Y0150474D01*
X0054624Y0150316D01*
X0054630Y0150158D01*
X0054632Y0150000D01*
X0054630Y0149842D01*
X0054624Y0149684D01*
X0054614Y0149526D01*
X0054600Y0149368D01*
X0054582Y0149211D01*
X0054561Y0149054D01*
X0054535Y0148898D01*
X0054505Y0148742D01*
X0054472Y0148587D01*
X0054434Y0148434D01*
X0054393Y0148281D01*
X0054348Y0148129D01*
X0054299Y0147978D01*
X0054246Y0147829D01*
X0054190Y0147681D01*
X0054130Y0147535D01*
X0054066Y0147390D01*
X0053998Y0147247D01*
X0053927Y0147105D01*
X0053853Y0146965D01*
X0053775Y0146828D01*
X0053693Y0146692D01*
X0053609Y0146558D01*
X0053520Y0146427D01*
X0053429Y0146298D01*
X0053334Y0146171D01*
X0053237Y0146046D01*
X0053136Y0145924D01*
X0053032Y0145805D01*
X0052925Y0145688D01*
X0052815Y0145574D01*
X0052702Y0145463D01*
X0052587Y0145354D01*
X0052469Y0145249D01*
X0052348Y0145147D01*
X0052225Y0145047D01*
X0052099Y0144951D01*
X0051971Y0144858D01*
X0051841Y0144768D01*
X0051708Y0144682D01*
X0051573Y0144598D01*
X0051437Y0144519D01*
X0051298Y0144442D01*
X0051157Y0144370D01*
X0051015Y0144300D01*
X0050871Y0144235D01*
X0050725Y0144173D01*
X0050578Y0144115D01*
X0050429Y0144060D01*
X0050279Y0144009D01*
X0050128Y0143962D01*
X0049976Y0143919D01*
X0049823Y0143880D01*
X0049668Y0143844D01*
X0049513Y0143813D01*
X0049357Y0143785D01*
X0049201Y0143761D01*
X0049044Y0143741D01*
X0048886Y0143725D01*
X0048729Y0143713D01*
X0048570Y0143705D01*
X0048412Y0143701D01*
X0048254Y0143701D01*
X0048096Y0143705D01*
X0047937Y0143713D01*
X0047780Y0143725D01*
X0047622Y0143741D01*
X0047465Y0143761D01*
X0047309Y0143785D01*
X0047153Y0143813D01*
X0046998Y0143844D01*
X0046843Y0143880D01*
X0046690Y0143919D01*
X0046538Y0143962D01*
X0046387Y0144009D01*
X0046237Y0144060D01*
X0046088Y0144115D01*
X0045941Y0144173D01*
X0045795Y0144235D01*
X0045651Y0144300D01*
X0045509Y0144370D01*
X0045368Y0144442D01*
X0045229Y0144519D01*
X0045093Y0144598D01*
X0044958Y0144682D01*
X0044825Y0144768D01*
X0044695Y0144858D01*
X0044567Y0144951D01*
X0044441Y0145047D01*
X0044318Y0145147D01*
X0044197Y0145249D01*
X0044079Y0145354D01*
X0043964Y0145463D01*
X0043851Y0145574D01*
X0043741Y0145688D01*
X0043634Y0145805D01*
X0043530Y0145924D01*
X0043429Y0146046D01*
X0043332Y0146171D01*
X0043237Y0146298D01*
X0043146Y0146427D01*
X0043057Y0146558D01*
X0042973Y0146692D01*
X0042891Y0146828D01*
X0042813Y0146965D01*
X0042739Y0147105D01*
X0042668Y0147247D01*
X0042600Y0147390D01*
X0042536Y0147535D01*
X0042476Y0147681D01*
X0042420Y0147829D01*
X0042367Y0147978D01*
X0042318Y0148129D01*
X0042273Y0148281D01*
X0042232Y0148434D01*
X0042194Y0148587D01*
X0042161Y0148742D01*
X0042131Y0148898D01*
X0042105Y0149054D01*
X0042084Y0149211D01*
X0042066Y0149368D01*
X0042052Y0149526D01*
X0042042Y0149684D01*
X0042036Y0149842D01*
X0042034Y0150000D01*
X0023333Y0175000D02*
X0023333Y0489961D01*
X0417034Y0489961D01*
X0417034Y0175000D01*
X0023333Y0175000D01*
X0102034Y0350000D02*
X0102036Y0350158D01*
X0102042Y0350316D01*
X0102052Y0350474D01*
X0102066Y0350632D01*
X0102084Y0350789D01*
X0102105Y0350946D01*
X0102131Y0351102D01*
X0102161Y0351258D01*
X0102194Y0351413D01*
X0102232Y0351566D01*
X0102273Y0351719D01*
X0102318Y0351871D01*
X0102367Y0352022D01*
X0102420Y0352171D01*
X0102476Y0352319D01*
X0102536Y0352465D01*
X0102600Y0352610D01*
X0102668Y0352753D01*
X0102739Y0352895D01*
X0102813Y0353035D01*
X0102891Y0353172D01*
X0102973Y0353308D01*
X0103057Y0353442D01*
X0103146Y0353573D01*
X0103237Y0353702D01*
X0103332Y0353829D01*
X0103429Y0353954D01*
X0103530Y0354076D01*
X0103634Y0354195D01*
X0103741Y0354312D01*
X0103851Y0354426D01*
X0103964Y0354537D01*
X0104079Y0354646D01*
X0104197Y0354751D01*
X0104318Y0354853D01*
X0104441Y0354953D01*
X0104567Y0355049D01*
X0104695Y0355142D01*
X0104825Y0355232D01*
X0104958Y0355318D01*
X0105093Y0355402D01*
X0105229Y0355481D01*
X0105368Y0355558D01*
X0105509Y0355630D01*
X0105651Y0355700D01*
X0105795Y0355765D01*
X0105941Y0355827D01*
X0106088Y0355885D01*
X0106237Y0355940D01*
X0106387Y0355991D01*
X0106538Y0356038D01*
X0106690Y0356081D01*
X0106843Y0356120D01*
X0106998Y0356156D01*
X0107153Y0356187D01*
X0107309Y0356215D01*
X0107465Y0356239D01*
X0107622Y0356259D01*
X0107780Y0356275D01*
X0107937Y0356287D01*
X0108096Y0356295D01*
X0108254Y0356299D01*
X0108412Y0356299D01*
X0108570Y0356295D01*
X0108729Y0356287D01*
X0108886Y0356275D01*
X0109044Y0356259D01*
X0109201Y0356239D01*
X0109357Y0356215D01*
X0109513Y0356187D01*
X0109668Y0356156D01*
X0109823Y0356120D01*
X0109976Y0356081D01*
X0110128Y0356038D01*
X0110279Y0355991D01*
X0110429Y0355940D01*
X0110578Y0355885D01*
X0110725Y0355827D01*
X0110871Y0355765D01*
X0111015Y0355700D01*
X0111157Y0355630D01*
X0111298Y0355558D01*
X0111437Y0355481D01*
X0111573Y0355402D01*
X0111708Y0355318D01*
X0111841Y0355232D01*
X0111971Y0355142D01*
X0112099Y0355049D01*
X0112225Y0354953D01*
X0112348Y0354853D01*
X0112469Y0354751D01*
X0112587Y0354646D01*
X0112702Y0354537D01*
X0112815Y0354426D01*
X0112925Y0354312D01*
X0113032Y0354195D01*
X0113136Y0354076D01*
X0113237Y0353954D01*
X0113334Y0353829D01*
X0113429Y0353702D01*
X0113520Y0353573D01*
X0113609Y0353442D01*
X0113693Y0353308D01*
X0113775Y0353172D01*
X0113853Y0353035D01*
X0113927Y0352895D01*
X0113998Y0352753D01*
X0114066Y0352610D01*
X0114130Y0352465D01*
X0114190Y0352319D01*
X0114246Y0352171D01*
X0114299Y0352022D01*
X0114348Y0351871D01*
X0114393Y0351719D01*
X0114434Y0351566D01*
X0114472Y0351413D01*
X0114505Y0351258D01*
X0114535Y0351102D01*
X0114561Y0350946D01*
X0114582Y0350789D01*
X0114600Y0350632D01*
X0114614Y0350474D01*
X0114624Y0350316D01*
X0114630Y0350158D01*
X0114632Y0350000D01*
X0114630Y0349842D01*
X0114624Y0349684D01*
X0114614Y0349526D01*
X0114600Y0349368D01*
X0114582Y0349211D01*
X0114561Y0349054D01*
X0114535Y0348898D01*
X0114505Y0348742D01*
X0114472Y0348587D01*
X0114434Y0348434D01*
X0114393Y0348281D01*
X0114348Y0348129D01*
X0114299Y0347978D01*
X0114246Y0347829D01*
X0114190Y0347681D01*
X0114130Y0347535D01*
X0114066Y0347390D01*
X0113998Y0347247D01*
X0113927Y0347105D01*
X0113853Y0346965D01*
X0113775Y0346828D01*
X0113693Y0346692D01*
X0113609Y0346558D01*
X0113520Y0346427D01*
X0113429Y0346298D01*
X0113334Y0346171D01*
X0113237Y0346046D01*
X0113136Y0345924D01*
X0113032Y0345805D01*
X0112925Y0345688D01*
X0112815Y0345574D01*
X0112702Y0345463D01*
X0112587Y0345354D01*
X0112469Y0345249D01*
X0112348Y0345147D01*
X0112225Y0345047D01*
X0112099Y0344951D01*
X0111971Y0344858D01*
X0111841Y0344768D01*
X0111708Y0344682D01*
X0111573Y0344598D01*
X0111437Y0344519D01*
X0111298Y0344442D01*
X0111157Y0344370D01*
X0111015Y0344300D01*
X0110871Y0344235D01*
X0110725Y0344173D01*
X0110578Y0344115D01*
X0110429Y0344060D01*
X0110279Y0344009D01*
X0110128Y0343962D01*
X0109976Y0343919D01*
X0109823Y0343880D01*
X0109668Y0343844D01*
X0109513Y0343813D01*
X0109357Y0343785D01*
X0109201Y0343761D01*
X0109044Y0343741D01*
X0108886Y0343725D01*
X0108729Y0343713D01*
X0108570Y0343705D01*
X0108412Y0343701D01*
X0108254Y0343701D01*
X0108096Y0343705D01*
X0107937Y0343713D01*
X0107780Y0343725D01*
X0107622Y0343741D01*
X0107465Y0343761D01*
X0107309Y0343785D01*
X0107153Y0343813D01*
X0106998Y0343844D01*
X0106843Y0343880D01*
X0106690Y0343919D01*
X0106538Y0343962D01*
X0106387Y0344009D01*
X0106237Y0344060D01*
X0106088Y0344115D01*
X0105941Y0344173D01*
X0105795Y0344235D01*
X0105651Y0344300D01*
X0105509Y0344370D01*
X0105368Y0344442D01*
X0105229Y0344519D01*
X0105093Y0344598D01*
X0104958Y0344682D01*
X0104825Y0344768D01*
X0104695Y0344858D01*
X0104567Y0344951D01*
X0104441Y0345047D01*
X0104318Y0345147D01*
X0104197Y0345249D01*
X0104079Y0345354D01*
X0103964Y0345463D01*
X0103851Y0345574D01*
X0103741Y0345688D01*
X0103634Y0345805D01*
X0103530Y0345924D01*
X0103429Y0346046D01*
X0103332Y0346171D01*
X0103237Y0346298D01*
X0103146Y0346427D01*
X0103057Y0346558D01*
X0102973Y0346692D01*
X0102891Y0346828D01*
X0102813Y0346965D01*
X0102739Y0347105D01*
X0102668Y0347247D01*
X0102600Y0347390D01*
X0102536Y0347535D01*
X0102476Y0347681D01*
X0102420Y0347829D01*
X0102367Y0347978D01*
X0102318Y0348129D01*
X0102273Y0348281D01*
X0102232Y0348434D01*
X0102194Y0348587D01*
X0102161Y0348742D01*
X0102131Y0348898D01*
X0102105Y0349054D01*
X0102084Y0349211D01*
X0102066Y0349368D01*
X0102052Y0349526D01*
X0102042Y0349684D01*
X0102036Y0349842D01*
X0102034Y0350000D01*
X0042034Y0445000D02*
X0042036Y0445158D01*
X0042042Y0445316D01*
X0042052Y0445474D01*
X0042066Y0445632D01*
X0042084Y0445789D01*
X0042105Y0445946D01*
X0042131Y0446102D01*
X0042161Y0446258D01*
X0042194Y0446413D01*
X0042232Y0446566D01*
X0042273Y0446719D01*
X0042318Y0446871D01*
X0042367Y0447022D01*
X0042420Y0447171D01*
X0042476Y0447319D01*
X0042536Y0447465D01*
X0042600Y0447610D01*
X0042668Y0447753D01*
X0042739Y0447895D01*
X0042813Y0448035D01*
X0042891Y0448172D01*
X0042973Y0448308D01*
X0043057Y0448442D01*
X0043146Y0448573D01*
X0043237Y0448702D01*
X0043332Y0448829D01*
X0043429Y0448954D01*
X0043530Y0449076D01*
X0043634Y0449195D01*
X0043741Y0449312D01*
X0043851Y0449426D01*
X0043964Y0449537D01*
X0044079Y0449646D01*
X0044197Y0449751D01*
X0044318Y0449853D01*
X0044441Y0449953D01*
X0044567Y0450049D01*
X0044695Y0450142D01*
X0044825Y0450232D01*
X0044958Y0450318D01*
X0045093Y0450402D01*
X0045229Y0450481D01*
X0045368Y0450558D01*
X0045509Y0450630D01*
X0045651Y0450700D01*
X0045795Y0450765D01*
X0045941Y0450827D01*
X0046088Y0450885D01*
X0046237Y0450940D01*
X0046387Y0450991D01*
X0046538Y0451038D01*
X0046690Y0451081D01*
X0046843Y0451120D01*
X0046998Y0451156D01*
X0047153Y0451187D01*
X0047309Y0451215D01*
X0047465Y0451239D01*
X0047622Y0451259D01*
X0047780Y0451275D01*
X0047937Y0451287D01*
X0048096Y0451295D01*
X0048254Y0451299D01*
X0048412Y0451299D01*
X0048570Y0451295D01*
X0048729Y0451287D01*
X0048886Y0451275D01*
X0049044Y0451259D01*
X0049201Y0451239D01*
X0049357Y0451215D01*
X0049513Y0451187D01*
X0049668Y0451156D01*
X0049823Y0451120D01*
X0049976Y0451081D01*
X0050128Y0451038D01*
X0050279Y0450991D01*
X0050429Y0450940D01*
X0050578Y0450885D01*
X0050725Y0450827D01*
X0050871Y0450765D01*
X0051015Y0450700D01*
X0051157Y0450630D01*
X0051298Y0450558D01*
X0051437Y0450481D01*
X0051573Y0450402D01*
X0051708Y0450318D01*
X0051841Y0450232D01*
X0051971Y0450142D01*
X0052099Y0450049D01*
X0052225Y0449953D01*
X0052348Y0449853D01*
X0052469Y0449751D01*
X0052587Y0449646D01*
X0052702Y0449537D01*
X0052815Y0449426D01*
X0052925Y0449312D01*
X0053032Y0449195D01*
X0053136Y0449076D01*
X0053237Y0448954D01*
X0053334Y0448829D01*
X0053429Y0448702D01*
X0053520Y0448573D01*
X0053609Y0448442D01*
X0053693Y0448308D01*
X0053775Y0448172D01*
X0053853Y0448035D01*
X0053927Y0447895D01*
X0053998Y0447753D01*
X0054066Y0447610D01*
X0054130Y0447465D01*
X0054190Y0447319D01*
X0054246Y0447171D01*
X0054299Y0447022D01*
X0054348Y0446871D01*
X0054393Y0446719D01*
X0054434Y0446566D01*
X0054472Y0446413D01*
X0054505Y0446258D01*
X0054535Y0446102D01*
X0054561Y0445946D01*
X0054582Y0445789D01*
X0054600Y0445632D01*
X0054614Y0445474D01*
X0054624Y0445316D01*
X0054630Y0445158D01*
X0054632Y0445000D01*
X0054630Y0444842D01*
X0054624Y0444684D01*
X0054614Y0444526D01*
X0054600Y0444368D01*
X0054582Y0444211D01*
X0054561Y0444054D01*
X0054535Y0443898D01*
X0054505Y0443742D01*
X0054472Y0443587D01*
X0054434Y0443434D01*
X0054393Y0443281D01*
X0054348Y0443129D01*
X0054299Y0442978D01*
X0054246Y0442829D01*
X0054190Y0442681D01*
X0054130Y0442535D01*
X0054066Y0442390D01*
X0053998Y0442247D01*
X0053927Y0442105D01*
X0053853Y0441965D01*
X0053775Y0441828D01*
X0053693Y0441692D01*
X0053609Y0441558D01*
X0053520Y0441427D01*
X0053429Y0441298D01*
X0053334Y0441171D01*
X0053237Y0441046D01*
X0053136Y0440924D01*
X0053032Y0440805D01*
X0052925Y0440688D01*
X0052815Y0440574D01*
X0052702Y0440463D01*
X0052587Y0440354D01*
X0052469Y0440249D01*
X0052348Y0440147D01*
X0052225Y0440047D01*
X0052099Y0439951D01*
X0051971Y0439858D01*
X0051841Y0439768D01*
X0051708Y0439682D01*
X0051573Y0439598D01*
X0051437Y0439519D01*
X0051298Y0439442D01*
X0051157Y0439370D01*
X0051015Y0439300D01*
X0050871Y0439235D01*
X0050725Y0439173D01*
X0050578Y0439115D01*
X0050429Y0439060D01*
X0050279Y0439009D01*
X0050128Y0438962D01*
X0049976Y0438919D01*
X0049823Y0438880D01*
X0049668Y0438844D01*
X0049513Y0438813D01*
X0049357Y0438785D01*
X0049201Y0438761D01*
X0049044Y0438741D01*
X0048886Y0438725D01*
X0048729Y0438713D01*
X0048570Y0438705D01*
X0048412Y0438701D01*
X0048254Y0438701D01*
X0048096Y0438705D01*
X0047937Y0438713D01*
X0047780Y0438725D01*
X0047622Y0438741D01*
X0047465Y0438761D01*
X0047309Y0438785D01*
X0047153Y0438813D01*
X0046998Y0438844D01*
X0046843Y0438880D01*
X0046690Y0438919D01*
X0046538Y0438962D01*
X0046387Y0439009D01*
X0046237Y0439060D01*
X0046088Y0439115D01*
X0045941Y0439173D01*
X0045795Y0439235D01*
X0045651Y0439300D01*
X0045509Y0439370D01*
X0045368Y0439442D01*
X0045229Y0439519D01*
X0045093Y0439598D01*
X0044958Y0439682D01*
X0044825Y0439768D01*
X0044695Y0439858D01*
X0044567Y0439951D01*
X0044441Y0440047D01*
X0044318Y0440147D01*
X0044197Y0440249D01*
X0044079Y0440354D01*
X0043964Y0440463D01*
X0043851Y0440574D01*
X0043741Y0440688D01*
X0043634Y0440805D01*
X0043530Y0440924D01*
X0043429Y0441046D01*
X0043332Y0441171D01*
X0043237Y0441298D01*
X0043146Y0441427D01*
X0043057Y0441558D01*
X0042973Y0441692D01*
X0042891Y0441828D01*
X0042813Y0441965D01*
X0042739Y0442105D01*
X0042668Y0442247D01*
X0042600Y0442390D01*
X0042536Y0442535D01*
X0042476Y0442681D01*
X0042420Y0442829D01*
X0042367Y0442978D01*
X0042318Y0443129D01*
X0042273Y0443281D01*
X0042232Y0443434D01*
X0042194Y0443587D01*
X0042161Y0443742D01*
X0042131Y0443898D01*
X0042105Y0444054D01*
X0042084Y0444211D01*
X0042066Y0444368D01*
X0042052Y0444526D01*
X0042042Y0444684D01*
X0042036Y0444842D01*
X0042034Y0445000D01*
X0212034Y0350000D02*
X0212036Y0350158D01*
X0212042Y0350316D01*
X0212052Y0350474D01*
X0212066Y0350632D01*
X0212084Y0350789D01*
X0212105Y0350946D01*
X0212131Y0351102D01*
X0212161Y0351258D01*
X0212194Y0351413D01*
X0212232Y0351566D01*
X0212273Y0351719D01*
X0212318Y0351871D01*
X0212367Y0352022D01*
X0212420Y0352171D01*
X0212476Y0352319D01*
X0212536Y0352465D01*
X0212600Y0352610D01*
X0212668Y0352753D01*
X0212739Y0352895D01*
X0212813Y0353035D01*
X0212891Y0353172D01*
X0212973Y0353308D01*
X0213057Y0353442D01*
X0213146Y0353573D01*
X0213237Y0353702D01*
X0213332Y0353829D01*
X0213429Y0353954D01*
X0213530Y0354076D01*
X0213634Y0354195D01*
X0213741Y0354312D01*
X0213851Y0354426D01*
X0213964Y0354537D01*
X0214079Y0354646D01*
X0214197Y0354751D01*
X0214318Y0354853D01*
X0214441Y0354953D01*
X0214567Y0355049D01*
X0214695Y0355142D01*
X0214825Y0355232D01*
X0214958Y0355318D01*
X0215093Y0355402D01*
X0215229Y0355481D01*
X0215368Y0355558D01*
X0215509Y0355630D01*
X0215651Y0355700D01*
X0215795Y0355765D01*
X0215941Y0355827D01*
X0216088Y0355885D01*
X0216237Y0355940D01*
X0216387Y0355991D01*
X0216538Y0356038D01*
X0216690Y0356081D01*
X0216843Y0356120D01*
X0216998Y0356156D01*
X0217153Y0356187D01*
X0217309Y0356215D01*
X0217465Y0356239D01*
X0217622Y0356259D01*
X0217780Y0356275D01*
X0217937Y0356287D01*
X0218096Y0356295D01*
X0218254Y0356299D01*
X0218412Y0356299D01*
X0218570Y0356295D01*
X0218729Y0356287D01*
X0218886Y0356275D01*
X0219044Y0356259D01*
X0219201Y0356239D01*
X0219357Y0356215D01*
X0219513Y0356187D01*
X0219668Y0356156D01*
X0219823Y0356120D01*
X0219976Y0356081D01*
X0220128Y0356038D01*
X0220279Y0355991D01*
X0220429Y0355940D01*
X0220578Y0355885D01*
X0220725Y0355827D01*
X0220871Y0355765D01*
X0221015Y0355700D01*
X0221157Y0355630D01*
X0221298Y0355558D01*
X0221437Y0355481D01*
X0221573Y0355402D01*
X0221708Y0355318D01*
X0221841Y0355232D01*
X0221971Y0355142D01*
X0222099Y0355049D01*
X0222225Y0354953D01*
X0222348Y0354853D01*
X0222469Y0354751D01*
X0222587Y0354646D01*
X0222702Y0354537D01*
X0222815Y0354426D01*
X0222925Y0354312D01*
X0223032Y0354195D01*
X0223136Y0354076D01*
X0223237Y0353954D01*
X0223334Y0353829D01*
X0223429Y0353702D01*
X0223520Y0353573D01*
X0223609Y0353442D01*
X0223693Y0353308D01*
X0223775Y0353172D01*
X0223853Y0353035D01*
X0223927Y0352895D01*
X0223998Y0352753D01*
X0224066Y0352610D01*
X0224130Y0352465D01*
X0224190Y0352319D01*
X0224246Y0352171D01*
X0224299Y0352022D01*
X0224348Y0351871D01*
X0224393Y0351719D01*
X0224434Y0351566D01*
X0224472Y0351413D01*
X0224505Y0351258D01*
X0224535Y0351102D01*
X0224561Y0350946D01*
X0224582Y0350789D01*
X0224600Y0350632D01*
X0224614Y0350474D01*
X0224624Y0350316D01*
X0224630Y0350158D01*
X0224632Y0350000D01*
X0224630Y0349842D01*
X0224624Y0349684D01*
X0224614Y0349526D01*
X0224600Y0349368D01*
X0224582Y0349211D01*
X0224561Y0349054D01*
X0224535Y0348898D01*
X0224505Y0348742D01*
X0224472Y0348587D01*
X0224434Y0348434D01*
X0224393Y0348281D01*
X0224348Y0348129D01*
X0224299Y0347978D01*
X0224246Y0347829D01*
X0224190Y0347681D01*
X0224130Y0347535D01*
X0224066Y0347390D01*
X0223998Y0347247D01*
X0223927Y0347105D01*
X0223853Y0346965D01*
X0223775Y0346828D01*
X0223693Y0346692D01*
X0223609Y0346558D01*
X0223520Y0346427D01*
X0223429Y0346298D01*
X0223334Y0346171D01*
X0223237Y0346046D01*
X0223136Y0345924D01*
X0223032Y0345805D01*
X0222925Y0345688D01*
X0222815Y0345574D01*
X0222702Y0345463D01*
X0222587Y0345354D01*
X0222469Y0345249D01*
X0222348Y0345147D01*
X0222225Y0345047D01*
X0222099Y0344951D01*
X0221971Y0344858D01*
X0221841Y0344768D01*
X0221708Y0344682D01*
X0221573Y0344598D01*
X0221437Y0344519D01*
X0221298Y0344442D01*
X0221157Y0344370D01*
X0221015Y0344300D01*
X0220871Y0344235D01*
X0220725Y0344173D01*
X0220578Y0344115D01*
X0220429Y0344060D01*
X0220279Y0344009D01*
X0220128Y0343962D01*
X0219976Y0343919D01*
X0219823Y0343880D01*
X0219668Y0343844D01*
X0219513Y0343813D01*
X0219357Y0343785D01*
X0219201Y0343761D01*
X0219044Y0343741D01*
X0218886Y0343725D01*
X0218729Y0343713D01*
X0218570Y0343705D01*
X0218412Y0343701D01*
X0218254Y0343701D01*
X0218096Y0343705D01*
X0217937Y0343713D01*
X0217780Y0343725D01*
X0217622Y0343741D01*
X0217465Y0343761D01*
X0217309Y0343785D01*
X0217153Y0343813D01*
X0216998Y0343844D01*
X0216843Y0343880D01*
X0216690Y0343919D01*
X0216538Y0343962D01*
X0216387Y0344009D01*
X0216237Y0344060D01*
X0216088Y0344115D01*
X0215941Y0344173D01*
X0215795Y0344235D01*
X0215651Y0344300D01*
X0215509Y0344370D01*
X0215368Y0344442D01*
X0215229Y0344519D01*
X0215093Y0344598D01*
X0214958Y0344682D01*
X0214825Y0344768D01*
X0214695Y0344858D01*
X0214567Y0344951D01*
X0214441Y0345047D01*
X0214318Y0345147D01*
X0214197Y0345249D01*
X0214079Y0345354D01*
X0213964Y0345463D01*
X0213851Y0345574D01*
X0213741Y0345688D01*
X0213634Y0345805D01*
X0213530Y0345924D01*
X0213429Y0346046D01*
X0213332Y0346171D01*
X0213237Y0346298D01*
X0213146Y0346427D01*
X0213057Y0346558D01*
X0212973Y0346692D01*
X0212891Y0346828D01*
X0212813Y0346965D01*
X0212739Y0347105D01*
X0212668Y0347247D01*
X0212600Y0347390D01*
X0212536Y0347535D01*
X0212476Y0347681D01*
X0212420Y0347829D01*
X0212367Y0347978D01*
X0212318Y0348129D01*
X0212273Y0348281D01*
X0212232Y0348434D01*
X0212194Y0348587D01*
X0212161Y0348742D01*
X0212131Y0348898D01*
X0212105Y0349054D01*
X0212084Y0349211D01*
X0212066Y0349368D01*
X0212052Y0349526D01*
X0212042Y0349684D01*
X0212036Y0349842D01*
X0212034Y0350000D01*
X0232034Y0470000D02*
X0232036Y0470158D01*
X0232042Y0470316D01*
X0232052Y0470474D01*
X0232066Y0470632D01*
X0232084Y0470789D01*
X0232105Y0470946D01*
X0232131Y0471102D01*
X0232161Y0471258D01*
X0232194Y0471413D01*
X0232232Y0471566D01*
X0232273Y0471719D01*
X0232318Y0471871D01*
X0232367Y0472022D01*
X0232420Y0472171D01*
X0232476Y0472319D01*
X0232536Y0472465D01*
X0232600Y0472610D01*
X0232668Y0472753D01*
X0232739Y0472895D01*
X0232813Y0473035D01*
X0232891Y0473172D01*
X0232973Y0473308D01*
X0233057Y0473442D01*
X0233146Y0473573D01*
X0233237Y0473702D01*
X0233332Y0473829D01*
X0233429Y0473954D01*
X0233530Y0474076D01*
X0233634Y0474195D01*
X0233741Y0474312D01*
X0233851Y0474426D01*
X0233964Y0474537D01*
X0234079Y0474646D01*
X0234197Y0474751D01*
X0234318Y0474853D01*
X0234441Y0474953D01*
X0234567Y0475049D01*
X0234695Y0475142D01*
X0234825Y0475232D01*
X0234958Y0475318D01*
X0235093Y0475402D01*
X0235229Y0475481D01*
X0235368Y0475558D01*
X0235509Y0475630D01*
X0235651Y0475700D01*
X0235795Y0475765D01*
X0235941Y0475827D01*
X0236088Y0475885D01*
X0236237Y0475940D01*
X0236387Y0475991D01*
X0236538Y0476038D01*
X0236690Y0476081D01*
X0236843Y0476120D01*
X0236998Y0476156D01*
X0237153Y0476187D01*
X0237309Y0476215D01*
X0237465Y0476239D01*
X0237622Y0476259D01*
X0237780Y0476275D01*
X0237937Y0476287D01*
X0238096Y0476295D01*
X0238254Y0476299D01*
X0238412Y0476299D01*
X0238570Y0476295D01*
X0238729Y0476287D01*
X0238886Y0476275D01*
X0239044Y0476259D01*
X0239201Y0476239D01*
X0239357Y0476215D01*
X0239513Y0476187D01*
X0239668Y0476156D01*
X0239823Y0476120D01*
X0239976Y0476081D01*
X0240128Y0476038D01*
X0240279Y0475991D01*
X0240429Y0475940D01*
X0240578Y0475885D01*
X0240725Y0475827D01*
X0240871Y0475765D01*
X0241015Y0475700D01*
X0241157Y0475630D01*
X0241298Y0475558D01*
X0241437Y0475481D01*
X0241573Y0475402D01*
X0241708Y0475318D01*
X0241841Y0475232D01*
X0241971Y0475142D01*
X0242099Y0475049D01*
X0242225Y0474953D01*
X0242348Y0474853D01*
X0242469Y0474751D01*
X0242587Y0474646D01*
X0242702Y0474537D01*
X0242815Y0474426D01*
X0242925Y0474312D01*
X0243032Y0474195D01*
X0243136Y0474076D01*
X0243237Y0473954D01*
X0243334Y0473829D01*
X0243429Y0473702D01*
X0243520Y0473573D01*
X0243609Y0473442D01*
X0243693Y0473308D01*
X0243775Y0473172D01*
X0243853Y0473035D01*
X0243927Y0472895D01*
X0243998Y0472753D01*
X0244066Y0472610D01*
X0244130Y0472465D01*
X0244190Y0472319D01*
X0244246Y0472171D01*
X0244299Y0472022D01*
X0244348Y0471871D01*
X0244393Y0471719D01*
X0244434Y0471566D01*
X0244472Y0471413D01*
X0244505Y0471258D01*
X0244535Y0471102D01*
X0244561Y0470946D01*
X0244582Y0470789D01*
X0244600Y0470632D01*
X0244614Y0470474D01*
X0244624Y0470316D01*
X0244630Y0470158D01*
X0244632Y0470000D01*
X0244630Y0469842D01*
X0244624Y0469684D01*
X0244614Y0469526D01*
X0244600Y0469368D01*
X0244582Y0469211D01*
X0244561Y0469054D01*
X0244535Y0468898D01*
X0244505Y0468742D01*
X0244472Y0468587D01*
X0244434Y0468434D01*
X0244393Y0468281D01*
X0244348Y0468129D01*
X0244299Y0467978D01*
X0244246Y0467829D01*
X0244190Y0467681D01*
X0244130Y0467535D01*
X0244066Y0467390D01*
X0243998Y0467247D01*
X0243927Y0467105D01*
X0243853Y0466965D01*
X0243775Y0466828D01*
X0243693Y0466692D01*
X0243609Y0466558D01*
X0243520Y0466427D01*
X0243429Y0466298D01*
X0243334Y0466171D01*
X0243237Y0466046D01*
X0243136Y0465924D01*
X0243032Y0465805D01*
X0242925Y0465688D01*
X0242815Y0465574D01*
X0242702Y0465463D01*
X0242587Y0465354D01*
X0242469Y0465249D01*
X0242348Y0465147D01*
X0242225Y0465047D01*
X0242099Y0464951D01*
X0241971Y0464858D01*
X0241841Y0464768D01*
X0241708Y0464682D01*
X0241573Y0464598D01*
X0241437Y0464519D01*
X0241298Y0464442D01*
X0241157Y0464370D01*
X0241015Y0464300D01*
X0240871Y0464235D01*
X0240725Y0464173D01*
X0240578Y0464115D01*
X0240429Y0464060D01*
X0240279Y0464009D01*
X0240128Y0463962D01*
X0239976Y0463919D01*
X0239823Y0463880D01*
X0239668Y0463844D01*
X0239513Y0463813D01*
X0239357Y0463785D01*
X0239201Y0463761D01*
X0239044Y0463741D01*
X0238886Y0463725D01*
X0238729Y0463713D01*
X0238570Y0463705D01*
X0238412Y0463701D01*
X0238254Y0463701D01*
X0238096Y0463705D01*
X0237937Y0463713D01*
X0237780Y0463725D01*
X0237622Y0463741D01*
X0237465Y0463761D01*
X0237309Y0463785D01*
X0237153Y0463813D01*
X0236998Y0463844D01*
X0236843Y0463880D01*
X0236690Y0463919D01*
X0236538Y0463962D01*
X0236387Y0464009D01*
X0236237Y0464060D01*
X0236088Y0464115D01*
X0235941Y0464173D01*
X0235795Y0464235D01*
X0235651Y0464300D01*
X0235509Y0464370D01*
X0235368Y0464442D01*
X0235229Y0464519D01*
X0235093Y0464598D01*
X0234958Y0464682D01*
X0234825Y0464768D01*
X0234695Y0464858D01*
X0234567Y0464951D01*
X0234441Y0465047D01*
X0234318Y0465147D01*
X0234197Y0465249D01*
X0234079Y0465354D01*
X0233964Y0465463D01*
X0233851Y0465574D01*
X0233741Y0465688D01*
X0233634Y0465805D01*
X0233530Y0465924D01*
X0233429Y0466046D01*
X0233332Y0466171D01*
X0233237Y0466298D01*
X0233146Y0466427D01*
X0233057Y0466558D01*
X0232973Y0466692D01*
X0232891Y0466828D01*
X0232813Y0466965D01*
X0232739Y0467105D01*
X0232668Y0467247D01*
X0232600Y0467390D01*
X0232536Y0467535D01*
X0232476Y0467681D01*
X0232420Y0467829D01*
X0232367Y0467978D01*
X0232318Y0468129D01*
X0232273Y0468281D01*
X0232232Y0468434D01*
X0232194Y0468587D01*
X0232161Y0468742D01*
X0232131Y0468898D01*
X0232105Y0469054D01*
X0232084Y0469211D01*
X0232066Y0469368D01*
X0232052Y0469526D01*
X0232042Y0469684D01*
X0232036Y0469842D01*
X0232034Y0470000D01*
X0232034Y0145000D02*
X0232036Y0145158D01*
X0232042Y0145316D01*
X0232052Y0145474D01*
X0232066Y0145632D01*
X0232084Y0145789D01*
X0232105Y0145946D01*
X0232131Y0146102D01*
X0232161Y0146258D01*
X0232194Y0146413D01*
X0232232Y0146566D01*
X0232273Y0146719D01*
X0232318Y0146871D01*
X0232367Y0147022D01*
X0232420Y0147171D01*
X0232476Y0147319D01*
X0232536Y0147465D01*
X0232600Y0147610D01*
X0232668Y0147753D01*
X0232739Y0147895D01*
X0232813Y0148035D01*
X0232891Y0148172D01*
X0232973Y0148308D01*
X0233057Y0148442D01*
X0233146Y0148573D01*
X0233237Y0148702D01*
X0233332Y0148829D01*
X0233429Y0148954D01*
X0233530Y0149076D01*
X0233634Y0149195D01*
X0233741Y0149312D01*
X0233851Y0149426D01*
X0233964Y0149537D01*
X0234079Y0149646D01*
X0234197Y0149751D01*
X0234318Y0149853D01*
X0234441Y0149953D01*
X0234567Y0150049D01*
X0234695Y0150142D01*
X0234825Y0150232D01*
X0234958Y0150318D01*
X0235093Y0150402D01*
X0235229Y0150481D01*
X0235368Y0150558D01*
X0235509Y0150630D01*
X0235651Y0150700D01*
X0235795Y0150765D01*
X0235941Y0150827D01*
X0236088Y0150885D01*
X0236237Y0150940D01*
X0236387Y0150991D01*
X0236538Y0151038D01*
X0236690Y0151081D01*
X0236843Y0151120D01*
X0236998Y0151156D01*
X0237153Y0151187D01*
X0237309Y0151215D01*
X0237465Y0151239D01*
X0237622Y0151259D01*
X0237780Y0151275D01*
X0237937Y0151287D01*
X0238096Y0151295D01*
X0238254Y0151299D01*
X0238412Y0151299D01*
X0238570Y0151295D01*
X0238729Y0151287D01*
X0238886Y0151275D01*
X0239044Y0151259D01*
X0239201Y0151239D01*
X0239357Y0151215D01*
X0239513Y0151187D01*
X0239668Y0151156D01*
X0239823Y0151120D01*
X0239976Y0151081D01*
X0240128Y0151038D01*
X0240279Y0150991D01*
X0240429Y0150940D01*
X0240578Y0150885D01*
X0240725Y0150827D01*
X0240871Y0150765D01*
X0241015Y0150700D01*
X0241157Y0150630D01*
X0241298Y0150558D01*
X0241437Y0150481D01*
X0241573Y0150402D01*
X0241708Y0150318D01*
X0241841Y0150232D01*
X0241971Y0150142D01*
X0242099Y0150049D01*
X0242225Y0149953D01*
X0242348Y0149853D01*
X0242469Y0149751D01*
X0242587Y0149646D01*
X0242702Y0149537D01*
X0242815Y0149426D01*
X0242925Y0149312D01*
X0243032Y0149195D01*
X0243136Y0149076D01*
X0243237Y0148954D01*
X0243334Y0148829D01*
X0243429Y0148702D01*
X0243520Y0148573D01*
X0243609Y0148442D01*
X0243693Y0148308D01*
X0243775Y0148172D01*
X0243853Y0148035D01*
X0243927Y0147895D01*
X0243998Y0147753D01*
X0244066Y0147610D01*
X0244130Y0147465D01*
X0244190Y0147319D01*
X0244246Y0147171D01*
X0244299Y0147022D01*
X0244348Y0146871D01*
X0244393Y0146719D01*
X0244434Y0146566D01*
X0244472Y0146413D01*
X0244505Y0146258D01*
X0244535Y0146102D01*
X0244561Y0145946D01*
X0244582Y0145789D01*
X0244600Y0145632D01*
X0244614Y0145474D01*
X0244624Y0145316D01*
X0244630Y0145158D01*
X0244632Y0145000D01*
X0244630Y0144842D01*
X0244624Y0144684D01*
X0244614Y0144526D01*
X0244600Y0144368D01*
X0244582Y0144211D01*
X0244561Y0144054D01*
X0244535Y0143898D01*
X0244505Y0143742D01*
X0244472Y0143587D01*
X0244434Y0143434D01*
X0244393Y0143281D01*
X0244348Y0143129D01*
X0244299Y0142978D01*
X0244246Y0142829D01*
X0244190Y0142681D01*
X0244130Y0142535D01*
X0244066Y0142390D01*
X0243998Y0142247D01*
X0243927Y0142105D01*
X0243853Y0141965D01*
X0243775Y0141828D01*
X0243693Y0141692D01*
X0243609Y0141558D01*
X0243520Y0141427D01*
X0243429Y0141298D01*
X0243334Y0141171D01*
X0243237Y0141046D01*
X0243136Y0140924D01*
X0243032Y0140805D01*
X0242925Y0140688D01*
X0242815Y0140574D01*
X0242702Y0140463D01*
X0242587Y0140354D01*
X0242469Y0140249D01*
X0242348Y0140147D01*
X0242225Y0140047D01*
X0242099Y0139951D01*
X0241971Y0139858D01*
X0241841Y0139768D01*
X0241708Y0139682D01*
X0241573Y0139598D01*
X0241437Y0139519D01*
X0241298Y0139442D01*
X0241157Y0139370D01*
X0241015Y0139300D01*
X0240871Y0139235D01*
X0240725Y0139173D01*
X0240578Y0139115D01*
X0240429Y0139060D01*
X0240279Y0139009D01*
X0240128Y0138962D01*
X0239976Y0138919D01*
X0239823Y0138880D01*
X0239668Y0138844D01*
X0239513Y0138813D01*
X0239357Y0138785D01*
X0239201Y0138761D01*
X0239044Y0138741D01*
X0238886Y0138725D01*
X0238729Y0138713D01*
X0238570Y0138705D01*
X0238412Y0138701D01*
X0238254Y0138701D01*
X0238096Y0138705D01*
X0237937Y0138713D01*
X0237780Y0138725D01*
X0237622Y0138741D01*
X0237465Y0138761D01*
X0237309Y0138785D01*
X0237153Y0138813D01*
X0236998Y0138844D01*
X0236843Y0138880D01*
X0236690Y0138919D01*
X0236538Y0138962D01*
X0236387Y0139009D01*
X0236237Y0139060D01*
X0236088Y0139115D01*
X0235941Y0139173D01*
X0235795Y0139235D01*
X0235651Y0139300D01*
X0235509Y0139370D01*
X0235368Y0139442D01*
X0235229Y0139519D01*
X0235093Y0139598D01*
X0234958Y0139682D01*
X0234825Y0139768D01*
X0234695Y0139858D01*
X0234567Y0139951D01*
X0234441Y0140047D01*
X0234318Y0140147D01*
X0234197Y0140249D01*
X0234079Y0140354D01*
X0233964Y0140463D01*
X0233851Y0140574D01*
X0233741Y0140688D01*
X0233634Y0140805D01*
X0233530Y0140924D01*
X0233429Y0141046D01*
X0233332Y0141171D01*
X0233237Y0141298D01*
X0233146Y0141427D01*
X0233057Y0141558D01*
X0232973Y0141692D01*
X0232891Y0141828D01*
X0232813Y0141965D01*
X0232739Y0142105D01*
X0232668Y0142247D01*
X0232600Y0142390D01*
X0232536Y0142535D01*
X0232476Y0142681D01*
X0232420Y0142829D01*
X0232367Y0142978D01*
X0232318Y0143129D01*
X0232273Y0143281D01*
X0232232Y0143434D01*
X0232194Y0143587D01*
X0232161Y0143742D01*
X0232131Y0143898D01*
X0232105Y0144054D01*
X0232084Y0144211D01*
X0232066Y0144368D01*
X0232052Y0144526D01*
X0232042Y0144684D01*
X0232036Y0144842D01*
X0232034Y0145000D01*
D11*
X0258333Y0215000D03*
X0278333Y0235500D03*
X0288333Y0234500D03*
X0298333Y0235500D03*
X0298333Y0215000D03*
X0288333Y0269500D03*
X0298333Y0270500D03*
X0278333Y0270500D03*
X0288333Y0299500D03*
X0298333Y0300500D03*
X0278333Y0300500D03*
X0292833Y0330000D03*
X0293833Y0340000D03*
X0292833Y0350000D03*
X0293833Y0360000D03*
X0292833Y0370000D03*
X0303333Y0390000D03*
X0303333Y0400000D03*
X0303333Y0410000D03*
X0303333Y0420000D03*
X0303333Y0430000D03*
X0303333Y0440000D03*
X0303333Y0450000D03*
X0263333Y0450000D03*
X0263333Y0440000D03*
X0263333Y0430000D03*
X0263333Y0420000D03*
X0263333Y0410000D03*
X0263333Y0400000D03*
X0263333Y0390000D03*
X0238333Y0390000D03*
X0238333Y0380000D03*
X0238333Y0360000D03*
X0238333Y0350000D03*
X0238333Y0340000D03*
X0238333Y0330000D03*
X0238333Y0320000D03*
X0238333Y0310000D03*
X0238333Y0300000D03*
X0238333Y0290000D03*
X0238333Y0270000D03*
X0238333Y0260000D03*
X0238333Y0250000D03*
X0238333Y0240000D03*
X0238333Y0230000D03*
X0238333Y0220000D03*
X0353333Y0330000D03*
X0353333Y0340000D03*
X0353333Y0350000D03*
X0353333Y0360000D03*
X0353333Y0370000D03*
X0353333Y0380000D03*
X0353333Y0390000D03*
X0353333Y0400000D03*
X0353333Y0410000D03*
X0353333Y0420000D03*
X0353333Y0430000D03*
X0353333Y0440000D03*
X0353333Y0450000D03*
X0353333Y0460000D03*
X0353333Y0470000D03*
X0353333Y0480000D03*
X0368333Y0475000D03*
X0368333Y0455000D03*
X0368333Y0435000D03*
X0368333Y0415000D03*
X0368333Y0395000D03*
X0368333Y0375000D03*
X0368333Y0355000D03*
X0368333Y0335000D03*
X0408333Y0335000D03*
X0408333Y0355000D03*
X0408333Y0375000D03*
X0408333Y0395000D03*
X0408333Y0415000D03*
X0408333Y0435000D03*
X0408333Y0455000D03*
X0408333Y0475000D03*
X0238333Y0450000D03*
X0238333Y0440000D03*
X0238333Y0430000D03*
X0238333Y0420000D03*
X0238333Y0410000D03*
X0238333Y0400000D03*
X0218333Y0460000D03*
X0218333Y0470000D03*
X0048333Y0470000D03*
X0048333Y0460000D03*
X0048333Y0430000D03*
X0048333Y0420000D03*
X0048333Y0410000D03*
X0048333Y0400000D03*
X0048333Y0390000D03*
X0048333Y0380000D03*
X0048333Y0370000D03*
X0048333Y0360000D03*
X0048333Y0340000D03*
X0048333Y0330000D03*
X0048333Y0320000D03*
X0048333Y0310000D03*
X0048333Y0300000D03*
X0048333Y0290000D03*
X0048333Y0280000D03*
X0048333Y0270000D03*
X0048333Y0254000D03*
X0048333Y0244000D03*
X0048333Y0234000D03*
X0048333Y0224000D03*
X0048333Y0214000D03*
X0048333Y0204000D03*
X0048333Y0194000D03*
X0048333Y0184000D03*
D12*
X0058333Y0460000D03*
X0058333Y0470000D03*
X0068333Y0470000D03*
X0068333Y0460000D03*
X0078333Y0460000D03*
X0078333Y0470000D03*
X0088333Y0470000D03*
X0088333Y0460000D03*
X0098333Y0460000D03*
X0098333Y0470000D03*
X0108333Y0470000D03*
X0108333Y0460000D03*
X0118333Y0460000D03*
X0118333Y0470000D03*
X0128333Y0470000D03*
X0128333Y0460000D03*
X0138333Y0460000D03*
X0138333Y0470000D03*
X0148333Y0470000D03*
X0148333Y0460000D03*
X0158333Y0460000D03*
X0158333Y0470000D03*
X0168333Y0470000D03*
X0168333Y0460000D03*
X0178333Y0460000D03*
X0178333Y0470000D03*
X0188333Y0470000D03*
X0188333Y0460000D03*
X0198333Y0460000D03*
X0198333Y0470000D03*
X0208333Y0470000D03*
X0208333Y0460000D03*
D13*
X0323333Y0447874D03*
X0323333Y0432126D03*
X0323333Y0422874D03*
X0323333Y0407126D03*
X0323333Y0397874D03*
X0323333Y0382126D03*
X0323333Y0372874D03*
X0323333Y0357126D03*
X0323333Y0347874D03*
X0323333Y0332126D03*
X0323333Y0322874D03*
X0323333Y0307126D03*
X0323333Y0297874D03*
X0323333Y0282126D03*
D14*
X0368333Y0243937D03*
X0386837Y0232126D03*
X0368333Y0220315D03*
D15*
X0368033Y0220900D01*
X0348233Y0220900D01*
X0298733Y0270400D01*
X0298333Y0270500D01*
X0298733Y0271300D01*
X0298733Y0300100D01*
X0298333Y0300500D01*
X0297833Y0301000D01*
X0297833Y0332500D01*
X0294233Y0336100D01*
X0294233Y0339700D01*
X0293833Y0340000D01*
X0292833Y0330000D02*
X0292433Y0329800D01*
X0288833Y0326200D01*
X0288833Y0300100D01*
X0288333Y0299500D01*
X0288833Y0299200D01*
X0288833Y0269500D01*
X0288333Y0269500D01*
X0288833Y0269500D02*
X0288833Y0235300D01*
X0288333Y0234500D01*
X0298333Y0235500D02*
X0298733Y0235300D01*
X0298733Y0215500D01*
X0298333Y0215000D01*
X0258333Y0215000D02*
X0258233Y0215500D01*
X0258233Y0229900D01*
X0238433Y0249700D01*
X0238333Y0250000D01*
X0244733Y0271300D02*
X0236633Y0279400D01*
X0048533Y0279400D01*
X0048333Y0280000D01*
X0048533Y0299200D02*
X0048333Y0300000D01*
X0048533Y0299200D02*
X0221333Y0299200D01*
X0235733Y0284800D01*
X0262733Y0284800D01*
X0278033Y0300100D01*
X0278333Y0300500D01*
X0278033Y0271300D02*
X0278333Y0270500D01*
X0278033Y0271300D02*
X0244733Y0271300D01*
X0304133Y0319000D02*
X0304133Y0380200D01*
X0238433Y0380200D01*
X0238333Y0380000D01*
X0238433Y0389200D02*
X0238333Y0390000D01*
X0238433Y0389200D02*
X0253733Y0389200D01*
X0260033Y0382900D01*
X0286133Y0382900D01*
X0303233Y0400000D01*
X0303333Y0400000D01*
X0304133Y0400000D01*
X0308633Y0395500D01*
X0308633Y0339700D01*
X0323033Y0325300D01*
X0323033Y0323500D01*
X0323333Y0322874D01*
X0323333Y0332126D02*
X0323033Y0332500D01*
X0318533Y0337000D01*
X0318533Y0349600D01*
X0323033Y0354100D01*
X0323033Y0356800D01*
X0323333Y0357126D01*
X0323933Y0357700D01*
X0323933Y0366700D01*
X0328433Y0371200D01*
X0328433Y0377500D01*
X0323933Y0382000D01*
X0323333Y0382126D01*
X0323033Y0382900D01*
X0318533Y0387400D01*
X0318533Y0400000D01*
X0323033Y0404500D01*
X0323033Y0406300D01*
X0323333Y0407126D01*
X0323933Y0407200D01*
X0328433Y0411700D01*
X0328433Y0424300D01*
X0323933Y0428800D01*
X0323933Y0431500D01*
X0323333Y0432126D01*
X0323033Y0423400D02*
X0320333Y0423400D01*
X0304133Y0439600D01*
X0303333Y0440000D01*
X0305033Y0448600D02*
X0304133Y0449500D01*
X0303333Y0450000D01*
X0305033Y0448600D02*
X0323033Y0448600D01*
X0323333Y0447874D01*
X0319433Y0445000D02*
X0321233Y0443200D01*
X0349133Y0443200D01*
X0350933Y0445000D01*
X0408533Y0445000D01*
X0408533Y0454900D01*
X0408333Y0455000D01*
X0408533Y0455800D01*
X0408533Y0474700D01*
X0408333Y0475000D01*
X0408533Y0445000D02*
X0408533Y0435100D01*
X0408333Y0435000D01*
X0408533Y0434200D01*
X0408533Y0415300D01*
X0408333Y0415000D01*
X0408533Y0414400D01*
X0408533Y0395500D01*
X0408333Y0395000D01*
X0408533Y0394600D01*
X0408533Y0375700D01*
X0408333Y0375000D01*
X0408533Y0374800D01*
X0408533Y0355000D01*
X0408333Y0355000D01*
X0408533Y0355000D02*
X0408533Y0335200D01*
X0408333Y0335000D01*
X0368333Y0335000D02*
X0368033Y0334300D01*
X0364433Y0330700D01*
X0353633Y0330700D01*
X0353333Y0330000D01*
X0353333Y0350000D02*
X0353633Y0350500D01*
X0363533Y0350500D01*
X0368033Y0355000D01*
X0368333Y0355000D01*
X0363533Y0370300D02*
X0353633Y0370300D01*
X0353333Y0370000D01*
X0363533Y0370300D02*
X0368033Y0374800D01*
X0368333Y0375000D01*
X0363533Y0390100D02*
X0353633Y0390100D01*
X0353333Y0390000D01*
X0363533Y0390100D02*
X0368033Y0394600D01*
X0368333Y0395000D01*
X0364433Y0410800D02*
X0353633Y0410800D01*
X0353333Y0410000D01*
X0364433Y0410800D02*
X0368033Y0414400D01*
X0368333Y0415000D01*
X0364433Y0430600D02*
X0353633Y0430600D01*
X0353333Y0430000D01*
X0364433Y0430600D02*
X0368033Y0434200D01*
X0368333Y0435000D01*
X0363533Y0450400D02*
X0353633Y0450400D01*
X0353333Y0450000D01*
X0351833Y0458500D02*
X0353333Y0460000D01*
X0351833Y0458500D02*
X0233033Y0458500D01*
X0229433Y0454900D01*
X0215933Y0454900D01*
X0211433Y0459400D01*
X0208733Y0459400D01*
X0208333Y0460000D01*
X0203333Y0457600D02*
X0207833Y0453100D01*
X0230333Y0453100D01*
X0233033Y0455800D01*
X0265433Y0455800D01*
X0266333Y0454900D01*
X0287033Y0454900D01*
X0263633Y0449500D02*
X0263633Y0445000D01*
X0319433Y0445000D01*
X0323033Y0423400D02*
X0323333Y0422874D01*
X0310433Y0413500D02*
X0304133Y0419800D01*
X0303333Y0420000D01*
X0297833Y0417100D02*
X0297833Y0424300D01*
X0303233Y0429700D01*
X0303333Y0430000D01*
X0297833Y0417100D02*
X0265433Y0384700D01*
X0260933Y0384700D01*
X0258233Y0387400D01*
X0258233Y0397300D01*
X0238433Y0417100D01*
X0238433Y0419800D01*
X0238333Y0420000D01*
X0263333Y0420000D02*
X0263633Y0420700D01*
X0263633Y0429700D01*
X0263333Y0430000D01*
X0263633Y0430600D01*
X0263633Y0439600D01*
X0263333Y0440000D01*
X0263633Y0440500D01*
X0263633Y0445000D01*
X0263633Y0449500D02*
X0263333Y0450000D01*
X0263333Y0420000D02*
X0263633Y0419800D01*
X0263633Y0410800D01*
X0263333Y0410000D01*
X0263633Y0409900D01*
X0263633Y0400000D01*
X0263333Y0400000D01*
X0263633Y0400000D02*
X0263633Y0390100D01*
X0263333Y0390000D01*
X0245633Y0360400D02*
X0151133Y0454900D01*
X0083633Y0454900D01*
X0079133Y0459400D01*
X0078333Y0460000D01*
X0074633Y0453100D02*
X0068333Y0459400D01*
X0068333Y0460000D01*
X0074633Y0453100D02*
X0131333Y0453100D01*
X0229433Y0355000D01*
X0296033Y0355000D01*
X0299633Y0358600D01*
X0299633Y0361300D01*
X0293333Y0367600D01*
X0293333Y0369400D01*
X0292833Y0370000D01*
X0293333Y0360400D02*
X0293833Y0360000D01*
X0293333Y0360400D02*
X0245633Y0360400D01*
X0304133Y0380200D02*
X0304133Y0389200D01*
X0303333Y0390000D01*
X0310433Y0388300D02*
X0310433Y0413500D01*
X0310433Y0388300D02*
X0323033Y0375700D01*
X0323033Y0373000D01*
X0323333Y0372874D01*
X0304133Y0319000D02*
X0323033Y0300100D01*
X0323033Y0298300D01*
X0323333Y0297874D01*
X0323333Y0282126D02*
X0323933Y0282100D01*
X0361733Y0244300D01*
X0368033Y0244300D01*
X0368333Y0243937D01*
X0363533Y0450400D02*
X0368033Y0454900D01*
X0368333Y0455000D01*
X0363533Y0470200D02*
X0353633Y0470200D01*
X0353333Y0470000D01*
X0353333Y0480000D02*
X0352733Y0480100D01*
X0351833Y0481000D01*
X0222233Y0481000D01*
X0211433Y0470200D01*
X0208733Y0470200D01*
X0208333Y0470000D01*
X0203333Y0472900D02*
X0200633Y0475600D01*
X0184433Y0475600D01*
X0179033Y0470200D01*
X0178333Y0470000D01*
X0203333Y0472900D02*
X0203333Y0457600D01*
X0363533Y0470200D02*
X0368333Y0475000D01*
D16*
X0287033Y0454900D03*
M02*
