%
M48
M72
T01C0.02400
T02C0.03150
T03C0.03200
T04C0.03543
T05C0.04000
T06C0.11800
T07C0.12598
%
T01
X287033Y454900
T02
X323333Y447874
X323333Y432126
X323333Y422874
X323333Y407126
X323333Y397874
X323333Y382126
X323333Y372874
X323333Y357126
X323333Y347874
X323333Y332126
X323333Y322874
X323333Y307126
X323333Y297874
X323333Y282126
T03
X353333Y330000
X353333Y340000
X353333Y350000
X353333Y360000
X353333Y370000
X353333Y380000
X353333Y390000
X353333Y400000
X353333Y410000
X353333Y420000
X353333Y430000
X353333Y440000
X353333Y450000
X353333Y460000
X353333Y470000
X353333Y480000
T04
X368333Y475000
X368333Y455000
X368333Y435000
X368333Y415000
X368333Y395000
X368333Y375000
X368333Y355000
X368333Y335000
X408333Y335000
X408333Y355000
X408333Y375000
X408333Y395000
X408333Y415000
X408333Y435000
X408333Y455000
X408333Y475000
X303333Y450000
X303333Y440000
X303333Y430000
X303333Y420000
X303333Y410000
X303333Y400000
X303333Y390000
X263333Y390000
X263333Y400000
X263333Y410000
X263333Y420000
X263333Y430000
X263333Y440000
X263333Y450000
X258333Y215000
X298333Y215000
T05
X298333Y235500
X288333Y234500
X278333Y235500
X288333Y269500
X298333Y270500
X278333Y270500
X288333Y299500
X298333Y300500
X278333Y300500
X292833Y330000
X293833Y340000
X292833Y350000
X293833Y360000
X292833Y370000
X238333Y360000
X238333Y350000
X238333Y340000
X238333Y330000
X238333Y320000
X238333Y310000
X238333Y300000
X238333Y290000
X238333Y270000
X238333Y260000
X238333Y250000
X238333Y240000
X238333Y230000
X238333Y220000
X238333Y380000
X238333Y390000
X238333Y400000
X238333Y410000
X238333Y420000
X238333Y430000
X238333Y440000
X238333Y450000
X218333Y460000
X208333Y460000
X198333Y460000
X198333Y470000
X208333Y470000
X218333Y470000
X188333Y470000
X178333Y470000
X168333Y470000
X168333Y460000
X178333Y460000
X188333Y460000
X158333Y460000
X148333Y460000
X138333Y460000
X138333Y470000
X148333Y470000
X158333Y470000
X128333Y470000
X118333Y470000
X108333Y470000
X108333Y460000
X118333Y460000
X128333Y460000
X98333Y460000
X88333Y460000
X78333Y460000
X78333Y470000
X88333Y470000
X98333Y470000
X68333Y470000
X58333Y470000
X48333Y470000
X48333Y460000
X58333Y460000
X68333Y460000
X48333Y430000
X48333Y420000
X48333Y410000
X48333Y400000
X48333Y390000
X48333Y380000
X48333Y370000
X48333Y360000
X48333Y340000
X48333Y330000
X48333Y320000
X48333Y310000
X48333Y300000
X48333Y290000
X48333Y280000
X48333Y270000
X48333Y254000
X48333Y244000
X48333Y234000
X48333Y224000
X48333Y214000
X48333Y204000
X48333Y194000
X48333Y184000
T06
X368333Y220315
X386837Y232126
X368333Y243937
T07
X48333Y150000
X108333Y350000
X48333Y445000
X218333Y350000
X238333Y470000
X238333Y145000
M30
