G75*
%MOIN*%
%OFA0B0*%
%FSLAX25Y25*%
%IPPOS*%
%LPD*%
%AMOC8*
5,1,8,0,0,1.08239X$1,22.5*
%
%ADD10C,0.07400*%
%ADD11OC8,0.07400*%
%ADD12C,0.06600*%
%ADD13C,0.17000*%
%ADD14C,0.01000*%
%ADD15C,0.04000*%
D10*
X0048333Y0184000D03*
X0048333Y0194000D03*
X0048333Y0204000D03*
X0048333Y0214000D03*
X0048333Y0224000D03*
X0048333Y0234000D03*
X0048333Y0244000D03*
X0048333Y0254000D03*
X0048333Y0270000D03*
X0048333Y0280000D03*
X0048333Y0290000D03*
X0048333Y0300000D03*
X0048333Y0310000D03*
X0048333Y0320000D03*
X0048333Y0330000D03*
X0048333Y0340000D03*
X0048333Y0360000D03*
X0048333Y0370000D03*
X0048333Y0380000D03*
X0048333Y0390000D03*
X0048333Y0400000D03*
X0048333Y0410000D03*
X0048333Y0420000D03*
X0048333Y0430000D03*
X0048333Y0460000D03*
X0048333Y0470000D03*
X0218333Y0470000D03*
X0218333Y0460000D03*
X0238333Y0450000D03*
X0238333Y0440000D03*
X0238333Y0430000D03*
X0238333Y0420000D03*
X0238333Y0410000D03*
X0238333Y0400000D03*
X0238333Y0390000D03*
X0238333Y0380000D03*
X0238333Y0360000D03*
X0238333Y0350000D03*
X0238333Y0340000D03*
X0238333Y0330000D03*
X0238333Y0320000D03*
X0238333Y0310000D03*
X0238333Y0300000D03*
X0238333Y0290000D03*
X0238333Y0270000D03*
X0238333Y0260000D03*
X0238333Y0250000D03*
X0238333Y0240000D03*
X0238333Y0230000D03*
X0238333Y0220000D03*
X0258333Y0215000D03*
X0278333Y0235500D03*
X0288333Y0234500D03*
X0298333Y0235500D03*
X0298333Y0215000D03*
X0288333Y0269500D03*
X0298333Y0270500D03*
X0278333Y0270500D03*
X0288333Y0299500D03*
X0298333Y0300500D03*
X0278333Y0300500D03*
X0292833Y0330000D03*
X0293833Y0340000D03*
X0292833Y0350000D03*
X0293833Y0360000D03*
X0292833Y0370000D03*
X0303333Y0390000D03*
X0303333Y0400000D03*
X0303333Y0410000D03*
X0303333Y0420000D03*
X0303333Y0430000D03*
X0303333Y0440000D03*
X0303333Y0450000D03*
X0263333Y0450000D03*
X0263333Y0440000D03*
X0263333Y0430000D03*
X0263333Y0420000D03*
X0263333Y0410000D03*
X0263333Y0400000D03*
X0263333Y0390000D03*
X0353333Y0390000D03*
X0353333Y0380000D03*
X0353333Y0370000D03*
X0353333Y0360000D03*
X0353333Y0350000D03*
X0353333Y0340000D03*
X0353333Y0330000D03*
X0368333Y0335000D03*
X0368333Y0355000D03*
X0368333Y0375000D03*
X0368333Y0395000D03*
X0353333Y0400000D03*
X0353333Y0410000D03*
X0353333Y0420000D03*
X0353333Y0430000D03*
X0353333Y0440000D03*
X0353333Y0450000D03*
X0353333Y0460000D03*
X0353333Y0470000D03*
X0353333Y0480000D03*
X0368333Y0475000D03*
X0368333Y0455000D03*
X0368333Y0435000D03*
X0368333Y0415000D03*
X0408333Y0415000D03*
X0408333Y0395000D03*
X0408333Y0375000D03*
X0408333Y0355000D03*
X0408333Y0335000D03*
X0408333Y0435000D03*
X0408333Y0455000D03*
X0408333Y0475000D03*
D11*
X0208333Y0470000D03*
X0198333Y0470000D03*
X0198333Y0460000D03*
X0208333Y0460000D03*
X0188333Y0460000D03*
X0178333Y0460000D03*
X0168333Y0460000D03*
X0168333Y0470000D03*
X0178333Y0470000D03*
X0188333Y0470000D03*
X0158333Y0470000D03*
X0148333Y0470000D03*
X0138333Y0470000D03*
X0138333Y0460000D03*
X0148333Y0460000D03*
X0158333Y0460000D03*
X0128333Y0460000D03*
X0118333Y0460000D03*
X0108333Y0460000D03*
X0108333Y0470000D03*
X0118333Y0470000D03*
X0128333Y0470000D03*
X0098333Y0470000D03*
X0088333Y0470000D03*
X0078333Y0470000D03*
X0078333Y0460000D03*
X0088333Y0460000D03*
X0098333Y0460000D03*
X0068333Y0460000D03*
X0058333Y0460000D03*
X0058333Y0470000D03*
X0068333Y0470000D03*
D12*
X0323333Y0447874D03*
X0323333Y0432126D03*
X0323333Y0422874D03*
X0323333Y0407126D03*
X0323333Y0397874D03*
X0323333Y0382126D03*
X0323333Y0372874D03*
X0323333Y0357126D03*
X0323333Y0347874D03*
X0323333Y0332126D03*
X0323333Y0322874D03*
X0323333Y0307126D03*
X0323333Y0297874D03*
X0323333Y0282126D03*
D13*
X0368333Y0243937D03*
X0386837Y0232126D03*
X0368333Y0220315D03*
D14*
X0323333Y0282126D02*
X0323033Y0283000D01*
X0323033Y0291100D01*
X0318533Y0295600D01*
X0318533Y0301900D01*
X0323033Y0306400D01*
X0323333Y0307126D01*
X0323033Y0307300D01*
X0323033Y0316300D01*
X0318533Y0320800D01*
X0318533Y0331600D01*
X0323033Y0331600D01*
X0323333Y0332126D01*
X0318533Y0331600D02*
X0294233Y0331600D01*
X0293333Y0330700D01*
X0292833Y0330000D01*
X0294233Y0339700D02*
X0293833Y0340000D01*
X0294233Y0339700D02*
X0307733Y0339700D01*
X0310433Y0337000D01*
X0339233Y0337000D01*
X0351833Y0324400D01*
X0397733Y0324400D01*
X0408333Y0335000D01*
X0353333Y0340000D02*
X0352733Y0340600D01*
X0309533Y0340600D01*
X0295133Y0355000D01*
X0255533Y0355000D01*
X0179033Y0431500D01*
X0179033Y0459400D01*
X0178333Y0460000D01*
X0188333Y0460000D02*
X0195233Y0453100D01*
X0221333Y0453100D01*
X0224033Y0455800D01*
X0242933Y0455800D01*
X0247433Y0460300D01*
X0302333Y0460300D01*
X0330233Y0432400D01*
X0330233Y0405400D01*
X0352733Y0382900D01*
X0352733Y0380200D01*
X0353333Y0380000D01*
X0352733Y0363100D02*
X0328433Y0387400D01*
X0328433Y0410800D01*
X0308633Y0430600D01*
X0308633Y0442300D01*
X0305933Y0445000D01*
X0296933Y0445000D01*
X0287033Y0454900D01*
X0295133Y0458500D02*
X0303233Y0450400D01*
X0303333Y0450000D01*
X0303233Y0440500D02*
X0298733Y0440500D01*
X0294233Y0445000D01*
X0260933Y0445000D01*
X0246533Y0430600D01*
X0238433Y0430600D01*
X0238333Y0430000D01*
X0238333Y0440000D02*
X0238433Y0440500D01*
X0246533Y0440500D01*
X0264533Y0458500D01*
X0295133Y0458500D01*
X0303233Y0440500D02*
X0303333Y0440000D01*
X0303333Y0430000D02*
X0304133Y0429700D01*
X0308633Y0425200D01*
X0308633Y0415300D01*
X0323033Y0400900D01*
X0323033Y0398200D01*
X0323333Y0397874D01*
X0308633Y0405400D02*
X0308633Y0384700D01*
X0260933Y0384700D01*
X0245633Y0400000D01*
X0238333Y0400000D01*
X0255533Y0350500D02*
X0151133Y0454900D01*
X0062933Y0454900D01*
X0058433Y0459400D01*
X0058333Y0460000D01*
X0048333Y0320000D02*
X0048533Y0319900D01*
X0153833Y0214600D01*
X0240233Y0214600D01*
X0260933Y0235300D01*
X0278033Y0235300D01*
X0278333Y0235500D01*
X0278033Y0250600D02*
X0297833Y0270400D01*
X0298333Y0270500D01*
X0278033Y0250600D02*
X0238433Y0250600D01*
X0238333Y0250000D01*
X0323333Y0347874D02*
X0323033Y0348700D01*
X0323033Y0350500D01*
X0308633Y0364900D01*
X0308633Y0384700D01*
X0308633Y0405400D02*
X0304133Y0409900D01*
X0303333Y0410000D01*
X0328433Y0447700D02*
X0328433Y0449500D01*
X0315833Y0462100D01*
X0246533Y0462100D01*
X0242033Y0457600D01*
X0223133Y0457600D01*
X0220433Y0454900D01*
X0203333Y0454900D01*
X0198833Y0459400D01*
X0198333Y0460000D01*
X0198333Y0470000D02*
X0198833Y0470200D01*
X0209633Y0481000D01*
X0299633Y0481000D01*
X0340133Y0440500D01*
X0352733Y0440500D01*
X0353333Y0440000D01*
X0355433Y0445000D02*
X0338333Y0445000D01*
X0300533Y0482800D01*
X0201533Y0482800D01*
X0188933Y0470200D01*
X0188333Y0470000D01*
X0255533Y0350500D02*
X0292433Y0350500D01*
X0292833Y0350000D01*
X0352733Y0360400D02*
X0353333Y0360000D01*
X0352733Y0360400D02*
X0352733Y0363100D01*
X0353333Y0400000D02*
X0353633Y0400000D01*
X0353633Y0402700D01*
X0359033Y0408100D01*
X0359033Y0441400D01*
X0355433Y0445000D01*
X0352733Y0423400D02*
X0328433Y0447700D01*
X0352733Y0423400D02*
X0352733Y0420700D01*
X0353333Y0420000D01*
D15*
X0287033Y0454900D03*
M02*
