G75*
%MOIN*%
%OFA0B0*%
%FSLAX25Y25*%
%IPPOS*%
%LPD*%
%AMOC8*
5,1,8,0,0,1.08239X$1,22.5*
%
%ADD10C,0.08200*%
%ADD11OC8,0.08200*%
%ADD12C,0.13398*%
%ADD13C,0.07400*%
%ADD14C,0.17800*%
%ADD15C,0.04800*%
D10*
X0048333Y0184000D03*
X0048333Y0194000D03*
X0048333Y0204000D03*
X0048333Y0214000D03*
X0048333Y0224000D03*
X0048333Y0234000D03*
X0048333Y0244000D03*
X0048333Y0254000D03*
X0048333Y0270000D03*
X0048333Y0280000D03*
X0048333Y0290000D03*
X0048333Y0300000D03*
X0048333Y0310000D03*
X0048333Y0320000D03*
X0048333Y0330000D03*
X0048333Y0340000D03*
X0048333Y0360000D03*
X0048333Y0370000D03*
X0048333Y0380000D03*
X0048333Y0390000D03*
X0048333Y0400000D03*
X0048333Y0410000D03*
X0048333Y0420000D03*
X0048333Y0430000D03*
X0048333Y0460000D03*
X0048333Y0470000D03*
X0218333Y0470000D03*
X0218333Y0460000D03*
X0238333Y0450000D03*
X0238333Y0440000D03*
X0238333Y0430000D03*
X0238333Y0420000D03*
X0238333Y0410000D03*
X0238333Y0400000D03*
X0238333Y0390000D03*
X0238333Y0380000D03*
X0238333Y0360000D03*
X0238333Y0350000D03*
X0238333Y0340000D03*
X0238333Y0330000D03*
X0238333Y0320000D03*
X0238333Y0310000D03*
X0238333Y0300000D03*
X0238333Y0290000D03*
X0238333Y0270000D03*
X0238333Y0260000D03*
X0238333Y0250000D03*
X0238333Y0240000D03*
X0238333Y0230000D03*
X0238333Y0220000D03*
X0258333Y0215000D03*
X0278333Y0235500D03*
X0288333Y0234500D03*
X0298333Y0235500D03*
X0298333Y0215000D03*
X0288333Y0269500D03*
X0298333Y0270500D03*
X0278333Y0270500D03*
X0288333Y0299500D03*
X0298333Y0300500D03*
X0278333Y0300500D03*
X0292833Y0330000D03*
X0293833Y0340000D03*
X0292833Y0350000D03*
X0293833Y0360000D03*
X0292833Y0370000D03*
X0303333Y0390000D03*
X0303333Y0400000D03*
X0303333Y0410000D03*
X0303333Y0420000D03*
X0303333Y0430000D03*
X0303333Y0440000D03*
X0303333Y0450000D03*
X0263333Y0450000D03*
X0263333Y0440000D03*
X0263333Y0430000D03*
X0263333Y0420000D03*
X0263333Y0410000D03*
X0263333Y0400000D03*
X0263333Y0390000D03*
X0353333Y0390000D03*
X0353333Y0380000D03*
X0353333Y0370000D03*
X0353333Y0360000D03*
X0353333Y0350000D03*
X0353333Y0340000D03*
X0353333Y0330000D03*
X0368333Y0335000D03*
X0368333Y0355000D03*
X0368333Y0375000D03*
X0368333Y0395000D03*
X0353333Y0400000D03*
X0353333Y0410000D03*
X0353333Y0420000D03*
X0353333Y0430000D03*
X0353333Y0440000D03*
X0353333Y0450000D03*
X0353333Y0460000D03*
X0353333Y0470000D03*
X0353333Y0480000D03*
X0368333Y0475000D03*
X0368333Y0455000D03*
X0368333Y0435000D03*
X0368333Y0415000D03*
X0408333Y0415000D03*
X0408333Y0395000D03*
X0408333Y0375000D03*
X0408333Y0355000D03*
X0408333Y0335000D03*
X0408333Y0435000D03*
X0408333Y0455000D03*
X0408333Y0475000D03*
D11*
X0208333Y0470000D03*
X0198333Y0470000D03*
X0198333Y0460000D03*
X0208333Y0460000D03*
X0188333Y0460000D03*
X0178333Y0460000D03*
X0168333Y0460000D03*
X0168333Y0470000D03*
X0178333Y0470000D03*
X0188333Y0470000D03*
X0158333Y0470000D03*
X0148333Y0470000D03*
X0138333Y0470000D03*
X0138333Y0460000D03*
X0148333Y0460000D03*
X0158333Y0460000D03*
X0128333Y0460000D03*
X0118333Y0460000D03*
X0108333Y0460000D03*
X0108333Y0470000D03*
X0118333Y0470000D03*
X0128333Y0470000D03*
X0098333Y0470000D03*
X0088333Y0470000D03*
X0078333Y0470000D03*
X0078333Y0460000D03*
X0088333Y0460000D03*
X0098333Y0460000D03*
X0068333Y0460000D03*
X0058333Y0460000D03*
X0058333Y0470000D03*
X0068333Y0470000D03*
D12*
X0048333Y0150000D03*
X0108333Y0350000D03*
X0048333Y0445000D03*
X0218333Y0350000D03*
X0238333Y0470000D03*
X0238333Y0145000D03*
D13*
X0323333Y0282126D03*
X0323333Y0297874D03*
X0323333Y0307126D03*
X0323333Y0322874D03*
X0323333Y0332126D03*
X0323333Y0347874D03*
X0323333Y0357126D03*
X0323333Y0372874D03*
X0323333Y0382126D03*
X0323333Y0397874D03*
X0323333Y0407126D03*
X0323333Y0422874D03*
X0323333Y0432126D03*
X0323333Y0447874D03*
D14*
X0368333Y0243937D03*
X0386837Y0232126D03*
X0368333Y0220315D03*
D15*
X0287033Y0454900D03*
M02*
